<?xml version="1.0" encoding="UTF-8"?>
<svg version="1.1" xmlns="http://www.w3.org/2000/svg" width="1787" height="525">
<path d="M0 0 C14.57011934 -0.06980741 29.14020245 -0.12316675 43.71045589 -0.15543652 C50.47752049 -0.17082624 57.24447849 -0.19176214 64.01147461 -0.22631836 C70.55375826 -0.25971079 77.09597324 -0.2769019 83.63833809 -0.28463173 C86.12232762 -0.2901336 88.60631178 -0.30087616 91.09025383 -0.31719017 C119.06565148 -0.49345819 144.19538662 2.81903116 166 22 C167.14275391 22.99966797 167.14275391 22.99966797 168.30859375 24.01953125 C185.68917884 40.25546775 195.21289114 64.93175026 196.21875 88.3984375 C196.97362623 115.96708705 188.94577312 141.53349593 170 162 C151.23853063 181.26344848 127.07396104 187.83289435 100.84489059 188.3152647 C95.22416342 188.35954309 89.60504988 188.33154129 83.984375 188.29296875 C81.54673527 188.28735777 79.10909211 188.2830948 76.67144775 188.28010559 C70.3258289 188.26877499 63.98042352 188.23941234 57.6348877 188.20599365 C51.13162115 188.17503545 44.62831935 188.1615458 38.125 188.14648438 C25.41657404 188.11452885 12.70830493 188.06347915 0 188 C0 184.7 0 181.4 0 178 C7.59 178 15.18 178 23 178 C23 122.23 23 66.46 23 9 C15.41 9 7.82 9 0 9 C0 6.03 0 3.06 0 0 Z M71 9 C71 64.77 71 120.54 71 178 C100.99932632 180.6507806 100.99932632 180.6507806 128.51171875 169.609375 C141.82056361 155.79767706 141.16236684 134.3216122 141.203125 116.5078125 C141.20595238 115.66820858 141.20877975 114.82860466 141.21169281 113.9635582 C141.22662669 109.51313725 141.23589064 105.06274818 141.24023438 100.61230469 C141.24568612 96.07311974 141.26966071 91.53423973 141.29820633 86.99514961 C141.31706915 83.45495831 141.32205085 79.91483671 141.32357025 76.37459946 C141.32654839 74.70447005 141.33440702 73.03434035 141.34775543 71.36426163 C141.48046848 53.47171291 141.28150945 30.62285666 128 17 C113.79858004 4.29171999 86.48764338 9 71 9 Z " fill="#76332E" transform="translate(190,89)"/>
<path d="M0 0 C1.74298208 1.48392414 3.47332639 2.98288887 5.1875 4.5 C5.87199219 5.10070312 6.55648438 5.70140625 7.26171875 6.3203125 C23.38389929 21.42872509 36.18756139 44.63233514 37.31225586 66.97875977 C38.07836121 94.64208405 32.44206939 117.94998096 14.1875 139.5 C13.45917969 140.37398437 12.73085937 141.24796875 11.98046875 142.1484375 C-2.95389811 159.37483158 -23.10233288 171.23067453 -45.8125 174.5 C-59.69887441 175.23863694 -74.48435737 175.97093984 -87.8125 171.5 C-89.62814453 170.89671875 -89.62814453 170.89671875 -91.48046875 170.28125 C-105.12277585 165.42170119 -116.44625153 157.57577566 -126.8125 147.5 C-127.83923828 146.56607422 -127.83923828 146.56607422 -128.88671875 145.61328125 C-147.02051721 128.61952513 -156.50160011 103.85674406 -158 79.4453125 C-158.5316195 54.39274334 -149.4355547 31.04229007 -132.8125 12.5 C-132.27496094 11.82066406 -131.73742188 11.14132813 -131.18359375 10.44140625 C-117.61055117 -6.46536608 -95.58159046 -18.23435255 -74.2890625 -21.21875 C-46.18269661 -23.49252342 -22.3346887 -17.84931793 0 0 Z M-90.6875 -1.8125 C-103.02279952 13.71546527 -100.97121897 37.5106165 -100.98046875 56.34375 C-100.98369795 57.9263105 -100.98706312 59.50887072 -100.99055481 61.09143066 C-100.99649138 64.38908579 -100.99840053 67.68671493 -100.99780273 70.984375 C-100.99772173 74.31385764 -101.00463302 77.64320196 -101.01831055 80.97265625 C-101.16320665 103.86552301 -101.16320665 103.86552301 -99.98828125 126.71875 C-99.91892868 127.58802124 -99.84957611 128.45729248 -99.77812195 129.35290527 C-98.55883445 141.74849462 -94.66303584 151.96519296 -84.9296875 160.02734375 C-74.52323304 167.26578163 -59.50474885 166.68713584 -47.4375 165.0390625 C-39.37672139 163.09256767 -32.53303986 159.24386041 -27.5 152.5625 C-19.64408693 139.66570938 -19.67202294 123.41227726 -19.25 108.8125 C-19.22915344 108.11536896 -19.20830688 107.41823792 -19.18682861 106.69998169 C-18.74384878 91.63247318 -18.61370742 76.57349537 -18.8125 61.5 C-18.82110046 60.84286011 -18.82970093 60.18572021 -18.83856201 59.50866699 C-17.91307472 26.35085898 -17.91307472 26.35085898 -30.88671875 -2.8984375 C-38.14514973 -9.91618752 -45.95446745 -11.94946415 -55.8125 -12.5 C-56.52019531 -12.54125 -57.22789063 -12.5825 -57.95703125 -12.625 C-69.95494391 -12.97088577 -82.13357518 -10.8022936 -90.6875 -1.8125 Z " fill="#76332E" transform="translate(1458.8125,106.5)"/>
<path d="M0 0 C21.3101616 17.72361641 35.3745197 41.72508213 38.01171875 69.5703125 C39.96051309 96.31908649 30.91253347 120.44812261 13.7421875 140.75 C1.1772968 155.12260779 -13.42996627 165.83522151 -31.73046875 171.76171875 C-32.70371094 172.08269531 -33.67695312 172.40367187 -34.6796875 172.734375 C-58.1253258 179.05910804 -84.46492007 175.64571562 -105.45214844 163.7890625 C-130.32898308 149.35418658 -147.34570711 126.71129383 -154.96875 98.953125 C-160.5615445 75.52075011 -156.78400984 50.69250497 -145.0703125 29.80078125 C-130.26596888 5.72264606 -109.02434726 -11.89687109 -81.60546875 -19.328125 C-52.64794983 -26.12963902 -22.97700234 -18.52478201 0 0 Z M-88.765625 -3.26171875 C-105.30263382 16.61078017 -100.90845379 49.93430906 -100.86083984 74.09838867 C-100.85546461 77.32670774 -100.8608388 80.55488812 -100.8671875 83.78320312 C-102.77430521 122.7459031 -102.77430521 122.7459031 -88.37890625 157.31640625 C-80.7816509 164.83881179 -70.4121558 166.13454202 -60.16796875 166.19921875 C-49.18376529 166.04306066 -38.76827423 164.9617221 -30.73046875 156.76171875 C-14.29360038 137.84020748 -18.56056654 104.51240783 -18.60009766 81.31005859 C-18.60579443 77.9386881 -18.60240199 74.56739652 -18.59666443 71.19602871 C-18.56749496 53.55261771 -18.56749496 53.55261771 -19.16015625 35.921875 C-19.19680389 35.20862061 -19.23345154 34.49536621 -19.27120972 33.76049805 C-20.07995389 20.39622664 -21.81095154 5.68123596 -31.73046875 -4.23828125 C-46.39460135 -15.2363807 -74.93169044 -16.69736345 -88.765625 -3.26171875 Z " fill="#76332E" transform="translate(681.73046875,106.23828125)"/>
<path d="M0 0 C9.86598439 -0.30220066 19.730856 -0.53267914 29.60053825 -0.67355824 C34.184582 -0.74120407 38.76544411 -0.83280702 43.34765625 -0.98071289 C47.77648847 -1.12276092 52.2022777 -1.1998465 56.63321304 -1.23340416 C58.31683395 -1.25728986 60.00030158 -1.30394347 61.68261337 -1.37449074 C74.46088585 -1.88866254 74.46088585 -1.88866254 78.65531158 1.23126602 C82.1266151 4.73032243 84.5154911 8.77166174 87 13 C88.54241774 15.24071282 90.1434899 17.42908214 91.75 19.625 C92.58282175 20.79891876 93.41502706 21.97327561 94.24609375 23.1484375 C97.38116407 27.55529251 100.59686494 31.90176442 103.8125 36.25 C108.41296445 42.47320543 112.97928396 48.71862036 117.5 55 C124.25976616 64.38787945 131.12509745 73.69627282 138 83 C140.58440239 86.49921216 143.16746536 89.99940926 145.75 93.5 C146.34675537 94.30751709 146.94351074 95.11503418 147.55834961 95.94702148 C148.11143799 96.69669189 148.66452637 97.4463623 149.234375 98.21875 C149.72131836 98.87810547 150.20826172 99.53746094 150.70996094 100.21679688 C151.84422897 101.78467986 152.92656969 103.38985454 154 105 C154.06950788 93.48223362 154.12281537 81.96451714 154.15543652 70.44658375 C154.17109296 65.09834701 154.19233104 59.75025376 154.22631836 54.40209961 C154.25891227 49.24091366 154.27685317 44.07986575 154.28463173 38.91858482 C154.29017516 36.94939692 154.30100008 34.98021657 154.31719017 33.01108742 C154.33896475 30.25307509 154.3419669 27.49563327 154.34057617 24.73754883 C154.351362 23.92330948 154.36214783 23.10907013 154.3732605 22.27015686 C154.34820078 17.67789539 153.89892795 14.63325515 151 11 C148.30517958 9.8856238 145.57069476 9.82853474 142.671875 9.68359375 C141.47304688 9.62075195 141.47304688 9.62075195 140.25 9.55664062 C139.425 9.51732422 138.6 9.47800781 137.75 9.4375 C136.90953125 9.39431641 136.0690625 9.35113281 135.203125 9.30664062 C133.13559329 9.20091457 131.06781719 9.09998705 129 9 C129 6.03 129 3.06 129 0 C149.13 0 169.26 0 190 0 C190 2.97 190 5.94 190 9 C188.35451172 9.09087891 188.35451172 9.09087891 186.67578125 9.18359375 C185.22134346 9.26804498 183.76691695 9.35269066 182.3125 9.4375 C181.2306543 9.49647461 181.2306543 9.49647461 180.12695312 9.55664062 C179.42119141 9.59853516 178.71542969 9.64042969 177.98828125 9.68359375 C177.34415283 9.72025146 176.70002441 9.75690918 176.03637695 9.79467773 C173.65018126 10.03527126 171.34811395 10.51788607 169 11 C166.62665792 19.88412282 166.69273394 28.71768511 166.68115234 37.83251953 C166.67184008 39.51870701 166.6616695 41.20488992 166.65071106 42.8910675 C166.62354324 47.44197347 166.60830109 51.9928487 166.59528303 56.54381418 C166.57959432 61.30975247 166.55282255 66.07562855 166.5272522 70.84152222 C166.48056568 79.85452936 166.44377271 88.86754833 166.41057932 97.88061416 C166.37228617 108.14671108 166.32289496 118.41274536 166.27259517 128.67878938 C166.16942603 149.78581326 166.08011701 170.89287685 166 192 C164.72278076 192.03206543 163.44556152 192.06413086 162.12963867 192.09716797 C161.41120285 192.11520477 160.69276703 192.13324158 159.95256042 192.15182495 C158 192 158 192 155.92578125 190.4453125 C155.39339844 189.67960938 154.86101562 188.91390625 154.3125 188.125 C153.6525 187.20976562 152.9925 186.29453125 152.3125 185.3515625 C151.95027344 184.8246582 151.58804688 184.29775391 151.21484375 183.75488281 C149.86154141 181.79999189 148.46584094 179.88021261 147.0625 177.9609375 C144.25455722 174.11354067 141.47433683 170.24702725 138.70117188 166.37451172 C135.99584124 162.59838575 133.28049874 158.82951455 130.5625 155.0625 C130.02923096 154.32322266 129.49596191 153.58394531 128.9465332 152.82226562 C124.99725084 147.35703138 121.00642002 141.92344616 117 136.5 C109.72057378 126.64592179 102.55169676 116.71425666 95.39550781 106.77050781 C89.3076125 98.31406964 83.19131259 89.88111091 77 81.5 C70.81858069 73.13228151 64.71278156 64.71241903 58.63525391 56.26904297 C56.94090765 53.91800473 55.24250128 51.56994775 53.54296875 49.22265625 C52.97070557 48.43189697 52.39844238 47.6411377 51.80883789 46.82641602 C50.73171706 45.33824951 49.65412564 43.85042344 48.57592773 42.36303711 C45.78792024 38.50810928 43.03381934 34.6317014 40.30810547 30.73242188 C39.68612274 29.84292847 39.06414001 28.95343506 38.42330933 28.0369873 C37.95361725 27.36478149 37.48392517 26.69257568 37 26 C36.88321223 44.94961181 36.79503421 63.89915062 36.74093914 82.84904766 C36.71515451 91.64777848 36.67999919 100.44628573 36.62280273 109.24487305 C36.5729755 116.9134989 36.54071086 124.58196284 36.52955753 132.25074607 C36.52303753 136.31161625 36.50770894 140.37202322 36.47134972 144.43274498 C36.43740057 148.25528605 36.42694457 152.07717333 36.43446159 155.89985085 C36.43308653 157.3023242 36.42314671 158.70481952 36.40397263 160.10716248 C35.90408006 168.32317564 35.90408006 168.32317564 39.3795166 175.33190918 C42.21254379 177.13529654 43.75114304 177.64572656 47.08203125 177.70703125 C48.01337891 177.73603516 48.94472656 177.76503906 49.90429688 177.79492188 C51.34385742 177.80362305 51.34385742 177.80362305 52.8125 177.8125 C53.79154297 177.83763672 54.77058594 177.86277344 55.77929688 177.88867188 C58.18576829 177.9473663 60.59292674 177.97658903 63 178 C63 181.3 63 184.6 63 188 C42.21 188 21.42 188 0 188 C0 184.7 0 181.4 0 178 C1.33675781 177.95101562 2.67351563 177.90203125 4.05078125 177.8515625 C5.80470838 177.77652818 7.55861361 177.70098064 9.3125 177.625 C10.63411133 177.57859375 10.63411133 177.57859375 11.98242188 177.53125 C12.82998047 177.49257813 13.67753906 177.45390625 14.55078125 177.4140625 C15.33106689 177.3826416 16.11135254 177.3512207 16.9152832 177.31884766 C19.30155768 177.10412111 19.30155768 177.10412111 22 175 C23.1116402 171.6650794 23.12862891 169.17552105 23.13371277 165.66113281 C23.13597833 165.01548496 23.13824388 164.36983711 23.14057809 163.70462418 C23.14691699 161.53743968 23.14608881 159.37031775 23.14526367 157.203125 C23.14825518 155.65091877 23.15165769 154.09871329 23.15544128 152.54650879 C23.16428508 148.32760732 23.16661952 144.10872613 23.16725707 139.88981628 C23.1682058 136.37072154 23.17188358 132.85163153 23.17542917 129.3325386 C23.18357473 121.03288788 23.18601326 112.73324801 23.18530273 104.43359375 C23.18470151 95.86358687 23.19526199 87.29364285 23.2110464 78.72365189 C23.22410653 71.37158537 23.22948729 64.01953943 23.22884732 56.6674614 C23.22859194 52.27376853 23.23146551 47.88013154 23.24202538 43.4864502 C23.25168102 39.35622185 23.25180306 35.2261031 23.24450874 31.09587097 C23.24345982 29.57809795 23.24584393 28.06031819 23.2518692 26.54255676 C23.25954876 24.4745299 23.25497156 22.40688539 23.24723816 20.33886719 C23.24805531 18.60114044 23.24805531 18.60114044 23.24888897 16.82830811 C23.20981025 13.79511957 23.20981025 13.79511957 21 11 C18.34081834 10.11360611 16.51935359 9.82010975 13.76953125 9.68359375 C12.96708984 9.64169922 12.16464844 9.59980469 11.33789062 9.55664062 C10.50451172 9.51732422 9.67113281 9.47800781 8.8125 9.4375 C7.96751953 9.39431641 7.12253906 9.35113281 6.25195312 9.30664062 C4.16815567 9.20068482 2.08409897 9.0998498 0 9 C0 6.03 0 3.06 0 0 Z " fill="#77342F" transform="translate(741,89)"/>
<path d="M0 0 C31.68 0 63.36 0 96 0 C96 2.64 96 5.28 96 8 C94.38219843 9.61780157 92.54364482 9.22272147 90.30859375 9.31640625 C88.89223633 9.37924805 88.89223633 9.37924805 87.44726562 9.44335938 C85.95743164 9.50233398 85.95743164 9.50233398 84.4375 9.5625 C83.44041016 9.60568359 82.44332031 9.64886719 81.41601562 9.69335938 C78.9441585 9.79980298 76.4721969 9.90181928 74 10 C88.29455006 34.56056227 102.81676391 58.97542005 118 83 C124.9135559 70.46811942 131.69212529 57.8757688 138.25341797 45.15551758 C140.8082251 40.20359312 143.38215554 35.26702474 146.04296875 30.37109375 C146.51202637 29.50250732 146.98108398 28.6339209 147.46435547 27.73901367 C148.33636649 26.12906213 149.21638829 24.52341275 150.10595703 22.9230957 C152.1395659 19.15242815 153.58260276 16.41734628 153 12 C149.91526116 10.22034298 147.56067048 9.71563429 144.015625 9.5859375 C142.61376953 9.52792969 142.61376953 9.52792969 141.18359375 9.46875 C140.21550781 9.4378125 139.24742187 9.406875 138.25 9.375 C136.77466797 9.31699219 136.77466797 9.31699219 135.26953125 9.2578125 C132.84665711 9.1637203 130.42335455 9.08077848 128 9 C128 6.03 128 3.06 128 0 C148.46 0 168.92 0 190 0 C190 2.64 190 5.28 190 8 C188.26444179 9.73555821 185.95644682 9.26902409 183.62915039 9.43994141 C177.00893846 9.99893892 171.47772719 10.4898742 166.75 15.57421875 C163.18077519 20.52173797 160.31748913 25.75585409 157.49365234 31.14990234 C155.73757828 34.50073736 153.95729494 37.83843511 152.17578125 41.17578125 C150.080531 45.10444712 147.98731352 49.03412692 145.90649414 52.97045898 C145.57450012 53.59522629 145.2425061 54.21999359 144.90045166 54.86369324 C144.19414737 56.20651207 143.49919577 57.5553475 142.81414795 58.90913391 C140.51229097 63.39615574 137.97755826 67.56883619 135.15307617 71.74902344 C122.00299817 92.13112195 121.96469454 111.12902535 122.50646973 134.86181641 C122.60117364 139.74350412 122.60783537 144.62534475 122.62304688 149.5078125 C122.66505113 159.007757 122.80885061 168.50188579 123 178 C130.59 178 138.18 178 146 178 C146 181.3 146 184.6 146 188 C114.65 188 83.3 188 51 188 C51 184.7 51 181.4 51 178 C58.59 178 66.18 178 74 178 C74.16445241 167.93123466 74.27118977 157.86606651 74.28240681 147.79594135 C74.28979815 143.11742146 74.32033301 138.44167564 74.40795898 133.76391602 C75.197742 104.35365461 75.197742 104.35365461 61.61026001 78.98074341 C59.25851974 76.08792236 57.42989575 72.96206047 55.57421875 69.73828125 C54.930896 68.67552979 54.28757324 67.61277832 53.62475586 66.51782227 C52.98546143 65.46006592 52.34616699 64.40230957 51.6875 63.3125 C40.37365503 44.61773874 40.37365503 44.61773874 28.84716797 26.05395508 C27.51557787 23.8524139 26.29358427 21.68192105 25.10986328 19.4050293 C21.95593943 13.09259883 21.95593943 13.09259883 16.58764648 8.88061523 C13.96241696 8.4970977 11.64374288 8.49460017 9 8.6875 C8.12988281 8.69845703 7.25976562 8.70941406 6.36328125 8.72070312 C4.24043371 8.75569512 2.1191332 8.8696904 0 9 C0 6.03 0 3.06 0 0 Z " fill="#77332E" transform="translate(939,89)"/>
<path d="M0 0 C0.53367187 -0.5053125 1.06734375 -1.010625 1.6171875 -1.53125 C5.87100544 -5.24046149 8.77167272 -7.49532566 14.5625 -7.4375 C16.04472162 -7.32695379 17.52635309 -7.19381995 19 -7 C20.29502872 9.65036932 20.09985802 26.31295603 20 43 C16.7 43 13.4 43 10 43 C9.63648438 41.96101563 9.27296875 40.92203125 8.8984375 39.8515625 C5.9932434 31.72072862 3.00896432 24.1103504 -2 17 C-2.43699219 16.36835937 -2.87398437 15.73671875 -3.32421875 15.0859375 C-10.20736806 6.13192665 -20.67919003 1.43801624 -31.5 -0.6875 C-43.48197696 -1.75731937 -55.58255818 -0.59242459 -65.87109375 6.1875 C-70.42707114 10.06635047 -73.90402371 15.0605156 -75 21 C-75.3630359 26.62705643 -75.24590017 30.18350298 -72 35 C-61.56556262 46.33295838 -45.61275442 48.8811926 -31.3203125 52.40234375 C-10.53465137 57.56931268 10.88427925 63.67962816 24 82 C34.07345033 98.96581108 35.61568362 119.9656788 30.90625 138.890625 C28.31850984 147.76925073 24.66228971 154.67162078 19 162 C18.48824219 162.68964844 17.97648437 163.37929688 17.44921875 164.08984375 C10.35908522 172.97450239 -0.14872661 179.74293038 -11 183 C-12.15886719 183.35449219 -13.31773438 183.70898438 -14.51171875 184.07421875 C-33.54145487 188.69911673 -54.80477412 185.31734946 -71.42578125 175.390625 C-73.95227646 173.76235319 -73.95227646 173.76235319 -77 174 C-79.35648045 176.25363595 -81.54909126 178.62235386 -83.74609375 181.03125 C-87 183 -87 183 -99 183 C-99 164.85 -99 146.7 -99 128 C-95.04 128 -91.08 128 -87 128 C-86.63648438 128.95519531 -86.27296875 129.91039062 -85.8984375 130.89453125 C-79.8085056 146.66935989 -72.741457 161.80827931 -57 170 C-43.06614118 176.04383555 -27.37317839 177.41856752 -12.9375 172.2578125 C-3.0050159 168.00480734 2.64553642 163.13057137 7.8125 153.6875 C10.35156 145.80305052 10.84719254 137.86440751 8 130 C3.13245945 120.96028184 -5.13701793 116.37814452 -14.671875 113.47265625 C-16.36210569 112.99377141 -18.0549601 112.52407363 -19.75 112.0625 C-20.66031982 111.80726563 -21.57063965 111.55203125 -22.50854492 111.2890625 C-27.91630698 109.78941925 -33.34537181 108.41264678 -38.80200195 107.10351562 C-58.38030592 102.39695456 -80.08088126 96.01394697 -91.4375 78 C-93.90581072 73.51659946 -95.72244585 68.95396896 -97 64 C-97.18433594 63.29488281 -97.36867188 62.58976562 -97.55859375 61.86328125 C-100.27542436 44.23994638 -97.80275357 27.00927443 -88 12 C-79.01974943 -0.11486633 -65.90248719 -8.11164014 -51.0078125 -10.6796875 C-32.08194576 -12.69516941 -16.55037075 -9.20614373 0 0 Z " fill="#783530" transform="translate(1623,96)"/>
<path d="M0 0 C0.53367187 -0.5053125 1.06734375 -1.010625 1.6171875 -1.53125 C2.36226562 -2.1809375 3.10734375 -2.830625 3.875 -3.5 C4.59429688 -4.1496875 5.31359375 -4.799375 6.0546875 -5.46875 C10.32539605 -7.68906532 14.2785158 -7.28942204 19 -7 C19.95294164 9.67647863 20.11932242 26.29853228 20 43 C16.7 43 13.4 43 10 43 C9.52691406 41.69546875 9.05382813 40.3909375 8.56640625 39.046875 C3.1716791 24.6060946 -2.62681212 11.50087647 -17 4 C-23.13644312 1.44184085 -29.34563495 -0.49778377 -36 -1 C-36.64839844 -1.0515625 -37.29679687 -1.103125 -37.96484375 -1.15625 C-48.89903674 -1.63079002 -59.28093736 1.38495826 -68 8 C-72.59932908 12.59932908 -75.13386919 18.0410076 -75.375 24.5625 C-75.11141343 30.55402546 -72.95862354 34.30967482 -68.75 38.5 C-59.46510299 46.04844641 -46.77842097 48.82466677 -35.33389282 51.41329956 C-13.69226639 56.35640034 10.66236247 62.60256825 24 82 C33.86811303 98.69468437 35.38634572 119.24305475 31.1640625 137.9453125 C26.7366035 154.78270263 15.67009401 168.86336251 1 178 C-16.69519089 187.06933969 -38.48572057 187.88356246 -57.46484375 182.35546875 C-62.40302417 180.46204488 -66.88978189 178.09970366 -71.42578125 175.390625 C-73.95227646 173.76235319 -73.95227646 173.76235319 -77 174 C-79.35648045 176.25363595 -81.54909126 178.62235386 -83.74609375 181.03125 C-87 183 -87 183 -99 183 C-99 164.85 -99 146.7 -99 128 C-95.04 128 -91.08 128 -87 128 C-86.64808594 129.02738281 -86.29617188 130.05476562 -85.93359375 131.11328125 C-79.95832896 148.08015855 -71.39912476 162.40330782 -55 171 C-42.05642282 176.51826488 -26.24331866 177.0593262 -13.00390625 172.3203125 C-2.82483464 167.84628623 3.16929008 162.64816478 8.12890625 152.74609375 C10.33462466 145.79264064 10.50665681 135.08308626 7.4375 128.3125 C0.17228311 117.0110515 -13.47104487 113.5538016 -25.75 110.4375 C-26.89235107 110.1379541 -28.03470215 109.8384082 -29.21166992 109.52978516 C-33.99116523 108.27835979 -38.77784167 107.05600464 -43.56640625 105.83984375 C-61.62555667 101.18852972 -80.74181932 94.6661386 -91.375 78.25 C-99.21511149 63.6166101 -100.44251619 46.50517828 -96.875 30.3125 C-96.3100042 28.52161881 -95.68479509 26.74857982 -95 25 C-94.43152344 23.53626953 -94.43152344 23.53626953 -93.8515625 22.04296875 C-87.85177607 8.53477908 -77.56939822 -1.34755607 -64 -7 C-41.96512562 -15.35746846 -20.04854052 -11.15200067 0 0 Z " fill="#783530" transform="translate(1243,96)"/>
<path d="M0 0 C31.35 0 62.7 0 95 0 C95 2.97 95 5.94 95 9 C87.41 9 79.82 9 72 9 C72 64.77 72 120.54 72 178 C79.59 178 87.18 178 95 178 C95 181.3 95 184.6 95 188 C63.65 188 32.3 188 0 188 C0 184.7 0 181.4 0 178 C7.59 178 15.18 178 23 178 C23 122.23 23 66.46 23 9 C15.41 9 7.82 9 0 9 C0 6.03 0 3.06 0 0 Z " fill="#76322D" transform="translate(408,89)"/>
<path d="M0 0 C7.486875 -0.061875 14.97375 -0.12375 22.6875 -0.1875 C25.04350342 -0.21481201 27.39950684 -0.24212402 29.8269043 -0.27026367 C31.7010039 -0.27902816 33.57510923 -0.28667219 35.44921875 -0.29296875 C36.90068298 -0.3159906 36.90068298 -0.3159906 38.38146973 -0.33947754 C47.06358254 -0.34285011 47.06358254 -0.34285011 51 3 C53.76220704 7.14331056 53.36768911 10.50594895 53.375 15.375 C53.39949219 16.22578125 53.42398438 17.0765625 53.44921875 17.953125 C53.46817718 22.01022808 53.32204512 24.42640351 51.3046875 28.01953125 C48.69960729 30.25813407 47.12135695 30.82454044 43.75 31.3125 C42.85796875 31.45300781 41.9659375 31.59351563 41.046875 31.73828125 C40.37140625 31.82464844 39.6959375 31.91101563 39 32 C44.54634216 37.03725761 50.21404762 41.83314815 56.12890625 46.43359375 C57.05509766 47.20896484 57.05509766 47.20896484 58 48 C58 48.33 58 48.66 58 49 C43.08917159 50.21997687 43.08917159 50.21997687 38.37109375 47.46484375 C36.41033694 45.40901994 34.72186042 43.25772544 33 41 C31.57216261 39.67470031 30.11396585 38.38123229 28.625 37.125 C26.67895038 35.45806507 24.81296709 33.81296709 23 32 C20.33757179 31.53709779 20.33757179 31.53709779 17.375 31.375 C14.714375 31.189375 14.714375 31.189375 12 31 C12 36.94 12 42.88 12 49 C8.04 49 4.08 49 0 49 C0 32.83 0 16.66 0 0 Z M12 9 C12 13.29 12 17.58 12 22 C15.95142546 22.06883128 19.90132632 22.1285718 23.85302734 22.16479492 C25.85919374 22.18732251 27.86516526 22.2254357 29.87109375 22.26367188 C31.12792969 22.27333984 32.38476562 22.28300781 33.6796875 22.29296875 C35.42354736 22.31653442 35.42354736 22.31653442 37.20263672 22.34057617 C38.1257666 22.22818604 39.04889648 22.1157959 40 22 C42.45811625 18.31282562 42.31118164 16.35654296 42 12 C41.34 11.01 40.68 10.02 40 9 C37.08935621 8.58210911 37.08935621 8.58210911 33.6796875 8.70703125 C32.42285156 8.71669922 31.16601562 8.72636719 29.87109375 8.73632812 C27.89302734 8.7740332 27.89302734 8.7740332 25.875 8.8125 C24.53517097 8.82754517 23.19532596 8.84123387 21.85546875 8.85351562 C18.57014094 8.8889688 15.28502075 8.94277706 12 9 Z " fill="#7D3D39" transform="translate(949,328)"/>
<path d="M0 0 C9 0 9 0 11.6796875 1.65234375 C12.40414063 2.40644531 13.12859375 3.16054688 13.875 3.9375 C14.71160156 4.76378906 15.54820313 5.59007812 16.41015625 6.44140625 C17.69212891 7.70791016 17.69212891 7.70791016 19 9 C20.75222336 10.48064179 22.52344349 11.93908092 24.3125 13.375 C29.16457864 17.29957716 33.9338485 21.31115982 38.6730957 25.37060547 C41.05285202 27.39923812 43.39384075 29.2625605 46 31 C46.33 20.77 46.66 10.54 47 0 C50.3 0 53.6 0 57 0 C57 16.17 57 32.34 57 49 C49.32579016 49 47.76508985 48.93684153 42.8125 44.1875 C41.68664674 43.17267893 40.56033124 42.15837048 39.43359375 41.14453125 C38.86624512 40.62197754 38.29889648 40.09942383 37.71435547 39.56103516 C34.99924931 37.08874966 32.18693188 34.73576529 29.375 32.375 C28.41335938 31.55773437 27.45171875 30.74046875 26.4609375 29.8984375 C21.67526029 25.89056787 16.83123745 21.95283064 12 18 C11.67 28.23 11.34 38.46 11 49 C7.37 49 3.74 49 0 49 C0 32.83 0 16.66 0 0 Z " fill="#7B3A36" transform="translate(1024,328)"/>
<path d="M0 0 C16.5 0 33 0 50 0 C50 2.97 50 5.94 50 9 C37.46 9 24.92 9 12 9 C12 12.3 12 15.6 12 19 C19.26 19 26.52 19 34 19 C34 21.97 34 24.94 34 28 C26.74 28 19.48 28 12 28 C12 31.63 12 35.26 12 39 C24.54 39 37.08 39 50 39 C50 42.3 50 45.6 50 49 C33.5 49 17 49 0 49 C0 32.83 0 16.66 0 0 Z " fill="#7F3F3B" transform="translate(879,328)"/>
<path d="M0 0 C4.16276974 -0.64919233 7.85749122 -0.86576414 12 0 C15.30862625 2.97058606 17.00009019 6.60355043 18.9375 10.5625 C20.10537433 12.75395657 21.27334571 14.94536142 22.44140625 17.13671875 C23.02293457 18.26770996 23.60446289 19.39870117 24.20361328 20.56396484 C27.09546999 26.09535806 30.25292494 31.47142514 33.375 36.875 C34.47195935 38.78573668 35.56362671 40.69952746 36.6484375 42.6171875 C37.10395996 43.41753418 37.55948242 44.21788086 38.02880859 45.04248047 C39 47 39 47 39 49 C34.71 49 30.42 49 26 49 C21 40.25 21 40.25 21 38 C10.77 38 0.54 38 -10 38 C-10.66 39.98 -11.32 41.96 -12 44 C-13.23828125 46.85546875 -13.23828125 46.85546875 -15 49 C-18.20412636 49.53616572 -21.0629279 49.31919742 -24.2980957 49.14526367 C-25.18972412 49.09732666 -26.08135254 49.04938965 -27 49 C-23.02682632 40.80039346 -18.71496201 32.89420799 -14.0625 25.0625 C-9.19187414 16.79486568 -4.45252416 8.49961079 0 0 Z M5 11 C3.49480613 13.62214328 1.99568681 16.24744208 0.5 18.875 C0.07074219 19.62136719 -0.35851563 20.36773437 -0.80078125 21.13671875 C-1.20683594 21.85214844 -1.61289063 22.56757813 -2.03125 23.3046875 C-2.40830078 23.96452637 -2.78535156 24.62436523 -3.17382812 25.30419922 C-4.1459916 26.98527146 -4.1459916 26.98527146 -4 29 C2.27 29 8.54 29 15 29 C13.42345627 24.2703688 11.92685315 20.83455334 9.4375 16.625 C8.81746094 15.56539063 8.19742187 14.50578125 7.55859375 13.4140625 C7.04425781 12.61742187 6.52992187 11.82078125 6 11 C5.67 11 5.34 11 5 11 Z " fill="#7C3B36" transform="translate(1123,328)"/>
<path d="M0 0 C3.04296875 0.0625 3.04296875 0.0625 6.0625 1.125 C9.68407026 5.41723142 12.03012158 10.2449541 14.55664062 15.23828125 C17.21483494 20.33401563 20.14478573 25.27633796 23.03918457 30.24029541 C24.05225282 31.98237884 25.05820834 33.72835805 26.06152344 35.47607422 C26.6805957 36.5538916 27.29966797 37.63170898 27.9375 38.7421875 C28.76894531 40.19020752 28.76894531 40.19020752 29.6171875 41.66748047 C30.70780339 43.52189593 31.86914665 45.33496997 33.0625 47.125 C33.0625 48.115 33.0625 49.105 33.0625 50.125 C28.7725 50.125 24.4825 50.125 20.0625 50.125 C15.0625 41.375 15.0625 41.375 15.0625 39.125 C10.89816039 39.02022231 6.73986799 38.98179162 2.57470703 39.00292969 C1.16050645 39.0009911 -0.25379025 38.98139882 -1.66748047 38.94335938 C-6.22815727 38.8276551 -10.50567773 38.88841156 -14.9375 40.125 C-17.19525117 42.5839317 -18.39920027 44.86486754 -19.77197266 47.89404297 C-20.9375 50.125 -20.9375 50.125 -23.9296875 51.1015625 C-24.88101563 50.98554688 -25.83234375 50.86953125 -26.8125 50.75 C-28.26269531 50.61464844 -28.26269531 50.61464844 -29.7421875 50.4765625 C-30.46664062 50.36054688 -31.19109375 50.24453125 -31.9375 50.125 C-31.23867432 46.30517716 -29.52635424 43.29798881 -27.65625 39.91796875 C-27.32645645 39.31968765 -26.9966629 38.72140656 -26.65687561 38.10499573 C-25.58875274 36.17134417 -24.51352694 34.24176271 -23.4375 32.3125 C-22.70557725 30.99320319 -21.97372509 29.67386722 -21.24194336 28.35449219 C-5.98987188 0.92410366 -5.98987188 0.92410366 0 0 Z M-0.9375 12.125 C-2.44082378 14.93573569 -3.93959735 17.74887206 -5.4375 20.5625 C-5.86675781 21.36494141 -6.29601562 22.16738281 -6.73828125 22.99414062 C-7.14433594 23.75791016 -7.55039062 24.52167969 -7.96875 25.30859375 C-8.34580078 26.01556396 -8.72285156 26.72253418 -9.11132812 27.45092773 C-10.01125864 28.96331776 -10.01125864 28.96331776 -9.9375 30.125 C-3.6675 30.125 2.6025 30.125 9.0625 30.125 C7.59903281 25.73459842 6.24139954 22.29443891 4.0625 18.3125 C3.546875 17.35730469 3.03125 16.40210938 2.5 15.41796875 C1.2679789 13.01095838 1.2679789 13.01095838 -0.9375 12.125 Z " fill="#7C3B36" transform="translate(769.9375,326.875)"/>
<path d="M0 0 C4.67213409 -1.12043341 8.36691049 -1.40225436 13 0 C17.078001 3.96144751 19.36189623 9.51973147 21.80175781 14.57373047 C23.74033952 18.49908194 25.94573912 22.26737161 28.125 26.0625 C29.42199202 28.37206534 30.71070667 30.68612333 32 33 C36.45783857 25.78626123 40.491698 18.41148239 44.375 10.875 C44.92027344 9.823125 45.46554687 8.77125 46.02734375 7.6875 C47.35441876 5.12647804 48.67761969 2.56344921 50 0 C53.96 0 57.92 0 62 0 C60.64464346 4.47578944 58.85786934 8.35415491 56.5859375 12.4375 C56.25260406 13.03949219 55.91927063 13.64148438 55.57583618 14.26171875 C54.51359403 16.17713702 53.44435006 18.08854282 52.375 20 C51.68054566 21.25105577 50.98653196 22.50235624 50.29296875 23.75390625 C45.59870626 32.20935883 40.81538702 40.61305286 36 49 C33.03 49 30.06 49 27 49 C26.67950684 48.42894531 26.35901367 47.85789062 26.02880859 47.26953125 C24.47955031 44.51188439 22.92770247 41.75570915 21.375 39 C20.80048096 37.98010986 20.22596191 36.96021973 19.6340332 35.90942383 C14.63284247 27.06002159 9.5129833 18.28300602 4.31982422 9.54492188 C3.75408691 8.58521484 3.18834961 7.62550781 2.60546875 6.63671875 C2.10168701 5.78811279 1.59790527 4.93950684 1.07885742 4.06518555 C0 2 0 2 0 0 Z " fill="#7D3D39" transform="translate(804,328)"/>
<path d="M0 0 C18.48 0 36.96 0 56 0 C56 2.97 56 5.94 56 9 C48.74 9 41.48 9 34 9 C34.01160156 11.80371094 34.02320313 14.60742188 34.03515625 17.49609375 C34.04294633 20.19995002 34.04902337 22.90380506 34.05493164 25.60766602 C34.05997244 27.4924373 34.06680498 29.37720465 34.07543945 31.26196289 C34.08751617 33.96501636 34.09323068 36.66801831 34.09765625 39.37109375 C34.10281754 40.21900986 34.10797882 41.06692596 34.11329651 41.9405365 C34.11349195 43.96071068 34.06206211 45.98077934 34 48 C33.67 48.33 33.34 48.66 33 49 C29.37 49 25.74 49 22 49 C22 35.8 22 22.6 22 9 C14.74 9 7.48 9 0 9 C0 6.03 0 3.06 0 0 Z " fill="#7C3B37" transform="translate(684,328)"/>
<path d="M0 0 C0.66 0.33 1.32 0.66 2 1 C-3.61 6.61 -9.22 12.22 -15 18 C-15.66 17.67 -16.32 17.34 -17 17 C-11.62789574 10.92530665 -6.3343346 5.09500827 0 0 Z " fill="#94605C" transform="translate(1340,105)"/>
</svg>
